<?xml version="1.0" standalone="no"?>
<!DOCTYPE svg PUBLIC "-//W3C//DTD SVG 20010904//EN"
 "http://www.w3.org/TR/2001/REC-SVG-20010904/DTD/svg10.dtd">
<svg version="1.0" xmlns="http://www.w3.org/2000/svg"
 width="700.000000pt" height="700.000000pt" viewBox="0 0 700.000000 700.000000"
 preserveAspectRatio="xMidYMid meet">
<metadata>
Created by potrace 1.14, written by Peter Selinger 2001-2017
</metadata>
<g transform="translate(0.000000,700.000000) scale(0.100000,-0.100000)"
fill="#000000" stroke="none">
<path d="M3240 6560 c0 -4 -10 -6 -22 -5 -13 1 -50 -1 -83 -6 -33 -4 -82 -11
-109 -14 -27 -4 -58 -9 -70 -12 -12 -2 -32 -6 -46 -8 -14 -2 -54 -11 -90 -20
-36 -9 -75 -17 -87 -18 -13 0 -23 -5 -23 -9 0 -4 -9 -8 -20 -8 -44 0 -342
-107 -468 -168 -34 -17 -62 -28 -62 -25 0 2 -12 -4 -27 -15 -32 -21 -106 -57
-112 -53 -2 2 -7 -2 -10 -7 -3 -5 -35 -27 -71 -48 -70 -40 -242 -153 -250
-164 -3 -3 -25 -20 -50 -38 -25 -17 -58 -42 -75 -56 -16 -14 -45 -38 -63 -54
-18 -15 -52 -46 -76 -69 -24 -24 -50 -43 -57 -43 -7 0 -10 -3 -7 -6 3 -3 -26
-38 -65 -78 -97 -98 -157 -165 -157 -177 0 -5 -3 -9 -8 -9 -10 0 -142 -174
-142 -188 0 -7 -4 -12 -10 -12 -5 0 -19 -18 -30 -40 -11 -22 -24 -40 -29 -40
-5 0 -14 -12 -20 -27 -6 -16 -25 -50 -42 -78 -36 -56 -143 -263 -176 -340 -25
-58 -64 -156 -68 -170 -1 -5 -8 -23 -14 -40 -7 -16 -14 -37 -16 -45 -2 -8 -4
-16 -5 -17 -2 -2 -4 -7 -5 -13 -1 -5 -3 -11 -4 -12 -2 -2 -4 -14 -7 -27 -2
-14 -9 -30 -15 -38 -6 -7 -9 -13 -6 -13 3 0 1 -16 -5 -36 -5 -20 -12 -46 -14
-58 -3 -11 -6 -25 -8 -31 -8 -28 -16 -63 -21 -90 -7 -37 -13 -60 -15 -60 -1 0
-3 -13 -5 -30 -1 -16 -5 -43 -8 -60 -4 -16 -9 -54 -12 -84 -3 -30 -10 -58 -16
-62 -8 -5 -8 -8 1 -11 10 -3 10 -9 1 -26 -8 -15 -8 -22 -1 -22 7 0 8 -7 2 -17
-4 -10 -7 -37 -7 -60 0 -24 -2 -43 -5 -43 -3 0 -4 -75 -2 -167 4 -220 6 -266
17 -282 6 -10 4 -12 -6 -6 -12 8 -12 6 0 -8 8 -10 12 -31 9 -52 -2 -19 0 -35
5 -35 4 0 5 -9 2 -20 -4 -11 -2 -20 4 -20 7 0 7 -8 1 -26 -7 -16 -7 -23 0 -19
5 3 10 -4 10 -17 1 -60 2 -68 11 -74 6 -3 5 -12 -3 -22 -10 -12 -10 -14 0 -8
12 7 14 -1 15 -61 1 -13 5 -23 10 -23 5 0 7 -7 4 -15 -4 -8 -2 -17 2 -20 14
-8 19 -53 7 -65 -8 -8 -7 -11 3 -8 7 2 15 -4 16 -13 2 -8 15 -54 29 -102 15
-48 26 -89 26 -92 0 -3 7 -19 15 -35 9 -17 13 -30 10 -30 -3 0 1 -13 9 -29 9
-16 12 -31 9 -35 -4 -3 -1 -6 5 -6 7 0 12 -6 12 -13 0 -7 11 -38 26 -68 72
-153 83 -182 77 -193 -3 -5 -1 -6 5 -2 7 4 12 1 12 -8 0 -9 5 -16 12 -16 6 0
9 -3 5 -6 -3 -4 1 -13 9 -22 13 -12 13 -16 2 -23 -10 -7 -8 -9 6 -9 12 0 16
-5 12 -16 -3 -8 -2 -13 2 -10 5 3 16 -8 26 -25 9 -16 14 -29 10 -29 -4 0 1 -7
12 -16 10 -8 12 -13 4 -9 -10 4 -9 2 3 -8 9 -8 17 -19 17 -26 0 -6 5 -11 11
-11 5 0 7 -4 4 -10 -3 -5 -1 -10 5 -10 5 0 18 -16 27 -35 9 -19 20 -35 25 -35
4 0 8 -6 8 -14 0 -8 6 -17 13 -19 9 -4 8 -8 -3 -17 -13 -9 -12 -10 5 -8 13 2
23 -5 30 -20 5 -12 13 -22 18 -22 4 0 5 -4 2 -10 -3 -5 0 -10 8 -10 7 0 19
-12 26 -26 6 -15 23 -35 36 -46 14 -11 25 -25 25 -32 0 -6 9 -18 20 -26 14
-10 16 -17 9 -26 -7 -8 -6 -15 2 -20 8 -4 9 -3 5 4 -4 7 0 12 10 12 10 0 15
-3 12 -6 -3 -3 16 -28 43 -55 27 -28 47 -55 43 -60 -3 -5 -2 -9 3 -8 21 4 33
-2 33 -16 0 -8 5 -15 10 -15 13 0 50 -37 50 -51 0 -5 5 -7 10 -4 5 3 10 -1 10
-9 0 -9 5 -16 11 -16 16 0 39 -26 31 -35 -4 -5 -2 -5 4 -2 7 4 17 1 23 -7 13
-15 5 -27 -15 -19 -8 3 -14 1 -14 -5 0 -11 25 -10 36 1 15 15 25 6 19 -15 -4
-16 -3 -19 3 -9 8 10 14 9 35 -9 15 -13 23 -28 20 -34 -3 -6 -3 -8 2 -4 11 10
47 -11 40 -23 -4 -5 -3 -8 2 -7 12 4 73 -35 67 -43 -2 -4 10 -12 26 -18 17 -5
30 -14 30 -18 0 -4 14 -14 30 -21 16 -8 30 -20 30 -28 0 -7 6 -11 14 -8 8 3
21 -5 30 -18 10 -15 16 -17 16 -8 0 13 1 13 10 0 6 -9 5 -17 -3 -23 -7 -5 -4
-6 9 -2 13 3 28 0 37 -9 8 -8 17 -12 21 -9 6 6 10 -13 6 -32 -1 -5 4 -4 11 2
18 17 32 16 26 -1 -4 -10 -1 -13 9 -9 17 6 18 -8 1 -27 -6 -8 -2 -6 10 4 19
16 25 17 38 6 9 -7 14 -19 11 -26 -3 -7 -1 -16 5 -19 5 -4 8 -1 7 7 -2 7 4 13
12 13 8 0 14 -5 13 -11 -1 -6 8 -10 20 -10 13 1 21 -4 19 -12 -1 -8 1 -11 6
-8 7 4 24 -2 102 -38 14 -6 28 -15 32 -21 4 -5 8 -6 8 -2 0 4 9 3 20 -3 11 -6
18 -14 16 -19 -3 -4 9 -5 26 -3 27 4 30 2 24 -13 -6 -16 -4 -16 11 -4 15 13
16 12 9 -6 -5 -15 -4 -17 5 -8 12 12 42 6 34 -7 -3 -5 3 -6 13 -3 11 2 26 -3
35 -11 10 -10 17 -12 19 -5 3 8 9 6 20 -4 8 -9 18 -13 22 -10 3 4 6 2 6 -4 0
-6 9 -9 19 -6 11 3 28 -4 40 -16 12 -12 21 -17 21 -12 0 10 18 9 35 0 6 -4 35
-12 65 -20 30 -7 64 -20 74 -28 11 -9 16 -10 12 -4 -4 8 -2 11 6 8 7 -2 26 -7
42 -9 30 -5 48 -16 27 -16 -7 0 -9 -5 -6 -11 5 -6 12 -4 21 8 7 10 14 13 14 8
0 -6 15 -10 33 -10 21 0 31 -4 29 -13 -2 -9 3 -10 16 -3 10 5 23 6 30 2 7 -4
25 -6 41 -5 18 1 32 -4 35 -12 3 -8 11 -14 18 -14 9 0 8 3 -2 10 -25 16 20 12
53 -5 15 -8 25 -10 22 -5 -9 15 29 12 44 -3 11 -10 12 -9 6 3 -8 13 -7 13 8 1
14 -11 17 -11 17 0 0 11 2 11 8 1 5 -8 16 -10 27 -6 14 6 16 4 10 -7 -7 -11
-6 -12 6 -3 8 5 25 9 39 7 48 -6 340 -4 350 2 6 3 10 1 10 -4 0 -6 -5 -11 -12
-11 -6 0 -9 -3 -6 -6 4 -3 17 1 30 9 12 8 32 13 43 11 10 -1 25 2 31 7 8 7 14
6 17 -3 4 -9 8 -10 14 -3 4 6 19 11 33 12 14 1 54 5 90 9 36 4 79 7 97 8 17 0
29 5 26 10 -3 5 6 7 21 4 14 -3 29 -1 32 3 3 5 10 9 15 9 6 0 7 -6 3 -12 -5
-8 -1 -7 10 2 10 8 23 15 30 16 6 1 20 6 30 10 15 6 17 4 11 -7 -7 -11 -6 -12
6 -2 8 6 27 14 42 17 15 2 32 8 38 12 8 5 10 2 5 -7 -4 -8 0 -5 8 5 9 11 16
17 16 13 0 -4 10 -3 21 4 13 6 19 7 15 1 -3 -6 12 -1 35 10 22 10 47 17 55 14
8 -3 14 -1 14 5 0 6 7 9 15 5 8 -3 15 -1 15 4 0 6 8 10 18 10 10 0 22 3 26 7
13 14 76 31 69 19 -3 -6 3 -3 15 7 12 11 26 16 33 11 7 -4 10 -3 6 3 -6 9 14
21 48 28 31 6 115 49 115 59 0 6 5 4 10 -4 6 -10 10 -11 10 -2 0 6 7 12 15 12
8 0 15 5 15 11 0 6 9 9 20 6 11 -3 18 -2 15 3 -6 10 24 22 36 14 5 -3 8 -2 7
3 -2 4 1 9 6 10 5 1 12 5 15 10 12 18 71 42 72 30 0 -7 4 -2 9 11 5 12 16 22
24 22 9 0 25 10 37 23 12 12 18 16 14 8 -5 -9 1 -7 19 4 14 10 26 21 26 26 0
5 6 9 14 9 7 0 19 7 26 15 7 9 15 13 18 10 3 -3 12 4 20 16 9 12 22 19 32 16
14 -3 17 -1 13 11 -5 11 -2 14 11 9 9 -4 15 -3 12 2 -8 12 82 73 96 65 6 -4 8
-3 5 3 -6 9 35 53 48 53 3 0 6 3 7 8 5 17 59 53 69 46 7 -4 9 -3 6 3 -7 11 36
56 45 47 4 -3 9 4 13 15 6 20 42 47 57 43 4 -1 4 6 1 15 -4 10 -2 14 4 10 5
-3 16 5 23 18 7 14 17 25 22 25 5 0 7 -4 4 -8 -3 -5 2 -9 10 -9 10 0 11 4 4
11 -15 15 -12 29 5 22 8 -3 14 -2 14 2 -4 22 3 33 15 29 11 -4 13 -1 9 10 -5
12 -1 14 18 8 17 -4 20 -3 10 3 -16 11 -5 36 11 26 7 -4 8 -2 4 4 -4 6 2 17
14 24 11 7 20 17 20 23 1 19 50 66 62 59 7 -4 8 -3 4 5 -10 15 13 43 27 34 6
-4 8 0 4 10 -6 16 15 42 25 31 3 -3 5 3 5 13 -1 10 3 17 10 16 7 -2 10 3 7 11
-3 9 3 17 15 21 12 3 19 11 16 16 -4 5 0 16 8 23 11 12 17 12 28 3 9 -8 8 -6
-1 7 -12 15 -12 20 -2 23 6 3 12 10 12 17 0 6 13 25 28 42 15 17 26 37 24 44
-3 9 1 11 11 7 11 -4 14 -2 10 9 -3 7 0 14 7 14 6 0 8 5 5 10 -12 19 6 32 23
18 15 -11 15 -11 4 3 -13 17 -6 53 8 44 5 -3 11 -1 15 5 3 5 0 10 -7 10 -8 0
-9 3 -3 8 6 4 19 24 29 45 13 25 24 36 34 32 12 -4 13 -3 2 10 -9 11 -10 18
-1 28 6 8 7 17 3 22 -4 4 3 5 16 2 17 -4 21 -2 14 6 -10 12 19 88 46 120 8 9
11 20 8 26 -4 5 1 16 9 25 9 8 16 18 15 21 -1 26 2 35 10 30 6 -4 7 1 3 11 -5
13 -3 15 8 9 12 -7 12 -6 1 7 -10 12 -10 17 -1 20 7 2 14 14 15 25 2 12 11 41
19 65 9 24 18 50 20 58 2 8 4 16 5 18 4 3 7 21 9 38 0 9 6 12 13 8 6 -4 8 -3
5 3 -8 13 3 74 12 69 3 -2 7 10 8 27 3 50 15 97 22 92 4 -2 5 10 3 27 -3 20
-1 29 6 24 6 -4 8 2 5 14 -3 11 0 27 7 35 9 11 9 15 1 15 -9 0 -9 6 0 23 7 12
12 38 12 57 0 19 2 39 5 44 3 5 7 28 9 50 3 23 5 50 6 61 2 11 7 26 11 34 7
11 6 12 -5 6 -12 -7 -12 -6 -1 7 9 12 10 18 2 23 -8 5 -5 12 7 22 10 8 13 12
7 9 -7 -3 -11 12 -10 44 1 28 3 50 6 50 4 0 4 235 0 250 -1 3 -2 34 -4 70 -1
36 -5 71 -10 78 -4 7 -2 12 5 12 8 0 8 4 2 13 -5 6 -11 32 -13 57 -3 61 -8
104 -10 108 -2 1 -4 11 -5 22 -1 11 -3 21 -5 23 -1 1 -4 18 -6 37 -3 19 -6 46
-8 60 -2 14 -7 33 -11 42 -4 9 -4 21 -1 27 3 5 2 11 -3 13 -5 1 -10 17 -12 33
-2 17 -7 36 -12 43 -5 6 -7 12 -3 12 3 0 1 11 -4 25 -5 14 -12 36 -14 48 -7
39 -86 267 -106 310 -11 22 -20 45 -20 50 0 15 -121 257 -174 347 -27 47 -77
125 -110 174 -34 49 -65 96 -71 105 -5 8 -17 21 -25 28 -8 7 -12 13 -7 13 4 0
-1 8 -10 18 -10 10 -34 38 -55 63 -48 59 -72 86 -118 135 -22 23 -36 44 -33
48 4 3 1 6 -5 6 -6 0 -46 35 -90 78 -72 70 -106 100 -182 163 -14 11 -34 28
-45 37 -11 9 -45 35 -75 57 -30 21 -57 42 -60 45 -3 3 -22 16 -43 29 -21 13
-43 28 -50 35 -6 6 -23 17 -37 24 -28 13 -62 34 -70 42 -3 3 -16 11 -30 18
-14 7 -52 28 -85 47 -33 19 -67 37 -75 41 -8 3 -42 19 -75 34 -94 43 -162 72
-177 74 -3 1 -10 4 -14 9 -4 4 -16 7 -26 7 -10 0 -18 5 -18 10 0 6 -8 10 -18
10 -9 0 -48 11 -85 25 -37 13 -69 24 -72 25 -3 0 -10 2 -17 5 -70 22 -255 65
-353 80 -63 10 -80 13 -80 15 0 1 -20 3 -45 5 -25 3 -65 7 -90 11 -66 9 -570
13 -570 4z"/>
<path d="M6216 2022 c-3 -4 4 -9 15 -9 23 -2 25 3 4 10 -8 4 -16 3 -19 -1z"/>
<path d="M5953 1605 c0 -8 4 -12 9 -9 5 3 6 10 3 15 -9 13 -12 11 -12 -6z"/>
<path d="M5866 1521 c-14 -15 -15 -21 -4 -27 7 -4 10 -3 5 1 -4 5 0 17 10 27
9 10 14 18 11 18 -3 0 -13 -9 -22 -19z"/>
<path d="M5490 1139 c0 -5 5 -7 10 -4 6 3 10 8 10 11 0 2 -4 4 -10 4 -5 0 -10
-5 -10 -11z"/>
<path d="M1576 1062 c-3 -5 1 -9 9 -9 8 0 12 4 9 9 -3 4 -7 8 -9 8 -2 0 -6 -4
-9 -8z"/>
<path d="M1619 1048 c-5 -18 -6 -38 -1 -34 7 8 12 36 6 36 -2 0 -4 -1 -5 -2z"/>
<path d="M5376 1022 c-2 -4 -1 -14 4 -22 7 -11 9 -9 7 8 -1 24 -3 26 -11 14z"/>
<path d="M5333 975 c0 -8 4 -12 9 -9 5 3 6 10 3 15 -9 13 -12 11 -12 -6z"/>
<path d="M5250 940 c0 -5 5 -10 11 -10 5 0 7 5 4 10 -3 6 -8 10 -11 10 -2 0
-4 -4 -4 -10z"/>
<path d="M5170 880 c0 -5 5 -10 11 -10 5 0 7 5 4 10 -3 6 -8 10 -11 10 -2 0
-4 -4 -4 -10z"/>
<path d="M5095 821 c-3 -5 -2 -12 3 -15 5 -3 9 1 9 9 0 17 -3 19 -12 6z"/>
<path d="M5013 769 c-2 -23 3 -25 10 -4 4 8 3 16 -1 19 -4 3 -9 -4 -9 -15z"/>
<path d="M2050 739 c0 -5 5 -7 10 -4 6 3 10 8 10 11 0 2 -4 4 -10 4 -5 0 -10
-5 -10 -11z"/>
<path d="M2135 701 c-3 -5 -2 -12 3 -15 5 -3 9 1 9 9 0 17 -3 19 -12 6z"/>
<path d="M4819 633 c-13 -16 -12 -17 4 -4 16 13 21 21 13 21 -2 0 -10 -8 -17
-17z"/>
<path d="M4655 620 c3 -5 8 -10 11 -10 2 0 4 5 4 10 0 6 -5 10 -11 10 -5 0 -7
-4 -4 -10z"/>
<path d="M2375 600 c-3 -5 -1 -10 4 -10 6 0 11 5 11 10 0 6 -2 10 -4 10 -3 0
-8 -4 -11 -10z"/>
<path d="M4550 539 c0 -5 5 -7 10 -4 6 3 10 8 10 11 0 2 -4 4 -10 4 -5 0 -10
-5 -10 -11z"/>
<path d="M2551 527 c-8 -10 -7 -14 2 -14 8 0 14 6 14 14 0 7 -1 13 -2 13 -2 0
-8 -6 -14 -13z"/>
<path d="M4333 505 c0 -8 4 -12 9 -9 5 3 6 10 3 15 -9 13 -12 11 -12 -6z"/>
<path d="M2650 500 c0 -5 5 -10 11 -10 5 0 7 5 4 10 -3 6 -8 10 -11 10 -2 0
-4 -4 -4 -10z"/>
<path d="M2695 500 c-3 -5 -1 -10 4 -10 6 0 11 5 11 10 0 6 -2 10 -4 10 -3 0
-8 -4 -11 -10z"/>
<path d="M4229 483 c-13 -16 -12 -17 4 -4 16 13 21 21 13 21 -2 0 -10 -8 -17
-17z"/>
<path d="M2739 488 c-5 -18 -6 -38 -1 -34 7 8 12 36 6 36 -2 0 -4 -1 -5 -2z"/>
<path d="M2836 447 c3 -10 9 -15 12 -12 3 3 0 11 -7 18 -10 9 -11 8 -5 -6z"/>
<path d="M2784 442 c4 -3 14 -7 22 -8 9 -1 13 0 10 4 -4 3 -14 7 -22 8 -9 1
-13 0 -10 -4z"/>
<path d="M2890 440 c0 -5 5 -10 11 -10 5 0 7 5 4 10 -3 6 -8 10 -11 10 -2 0
-4 -4 -4 -10z"/>
<path d="M3009 437 c6 -8 7 -18 3 -22 -4 -5 -1 -5 6 -1 10 6 10 11 1 22 -6 8
-14 14 -16 14 -3 0 0 -6 6 -13z"/>
<path d="M4061 436 c-9 -11 -9 -16 1 -22 7 -4 10 -4 6 1 -4 4 -3 14 3 22 6 7
9 13 6 13 -2 0 -10 -6 -16 -14z"/>
<path d="M4230 439 c0 -5 5 -7 10 -4 6 3 10 8 10 11 0 2 -4 4 -10 4 -5 0 -10
-5 -10 -11z"/>
<path d="M4295 440 c3 -5 8 -10 11 -10 2 0 4 5 4 10 0 6 -5 10 -11 10 -5 0 -7
-4 -4 -10z"/>
<path d="M3055 420 c3 -5 8 -10 11 -10 2 0 4 5 4 10 0 6 -5 10 -11 10 -5 0 -7
-4 -4 -10z"/>
<path d="M3475 409 c-4 -6 -5 -12 -2 -15 2 -3 7 2 10 11 7 17 1 20 -8 4z"/>
<path d="M4115 409 c-4 -6 -5 -12 -2 -15 2 -3 7 2 10 11 7 17 1 20 -8 4z"/>
<path d="M3373 391 c0 -11 5 -18 9 -15 4 3 5 11 1 19 -7 21 -12 19 -10 -4z"/>
<path d="M3417 395 c-4 -8 -3 -16 1 -19 4 -3 9 4 9 15 2 23 -3 25 -10 4z"/>
<path d="M3775 400 c3 -5 8 -10 11 -10 2 0 4 5 4 10 0 6 -5 10 -11 10 -5 0 -7
-4 -4 -10z"/>
<path d="M3653 385 c0 -8 4 -12 9 -9 5 3 6 10 3 15 -9 13 -12 11 -12 -6z"/>
<path d="M3173 383 c4 -3 1 -13 -6 -22 -11 -14 -10 -14 5 -2 16 12 16 31 1 31
-4 0 -3 -3 0 -7z"/>
<path d="M3286 382 c-3 -5 1 -9 9 -9 8 0 12 4 9 9 -3 4 -7 8 -9 8 -2 0 -6 -4
-9 -8z"/>
<path d="M3736 382 c-3 -5 1 -9 9 -9 8 0 12 4 9 9 -3 4 -7 8 -9 8 -2 0 -6 -4
-9 -8z"/>
<path d="M3230 376 c0 -2 8 -10 18 -17 15 -13 16 -12 3 4 -13 16 -21 21 -21
13z"/>
</g>
</svg>
